<svg width="28" height="28" viewBox="0 0 28 28" fill="none" xmlns="http://www.w3.org/2000/svg">
<g clip-path="url(#clip0_3165_2)">
<rect width="27.792" height="27.792" rx="6" fill="#0B68F7"/>
<path d="M13.6748 6.34898L13.6758 6.34995L13.6777 6.34898L13.6768 6.34995C13.885 6.35317 14.0869 6.42218 14.252 6.54917L14.3672 6.65367C14.4733 6.76667 14.5515 6.90432 14.5938 7.05503L17.4717 17.2904L18.8877 13.5169L18.9492 13.3832C19.0208 13.2555 19.1209 13.145 19.2422 13.0609L19.3691 12.9867C19.5005 12.9225 19.6455 12.8891 19.793 12.889H42.1826C42.4391 12.8891 42.6848 12.9909 42.8662 13.1722L42.9307 13.2435C43.0717 13.4157 43.1504 13.6323 43.1504 13.8568C43.1503 14.0811 43.0716 14.2971 42.9307 14.4691L42.8662 14.5404C42.6848 14.7217 42.4391 14.8235 42.1826 14.8236H20.4639L18.2461 20.7367C18.1924 20.8798 18.1058 21.0073 17.9941 21.1097L17.875 21.2035C17.7474 21.288 17.6018 21.3404 17.4512 21.3578L17.2998 21.3636C17.147 21.3572 16.9983 21.3148 16.8662 21.2406L16.7402 21.1556C16.6202 21.0607 16.5253 20.9389 16.4619 20.8011L16.4092 20.6585L13.6123 10.7152L12.541 14.1449C12.4949 14.2926 12.4142 14.4263 12.3066 14.5355L12.1904 14.6361C12.0661 14.7275 11.9224 14.7875 11.7715 14.8119L11.6182 14.8236H-9.18262C-9.40715 14.8236 -9.62375 14.7459 -9.7959 14.6048L-9.86621 14.5404C-10.0476 14.359 -10.1503 14.1133 -10.1504 13.8568C-10.1504 13.6002 -10.0477 13.3537 -9.86621 13.1722L-9.7959 13.1078C-9.62376 12.9667 -9.40712 12.8891 -9.18262 12.889H10.9072L12.7383 7.02769L12.7959 6.88316C12.8653 6.74437 12.9677 6.6234 13.0947 6.5316L13.2275 6.45152C13.3648 6.38264 13.5169 6.34828 13.6719 6.34995L13.6729 6.34898H13.6748Z" fill="white" stroke="white" stroke-width="0.3"/>
</g>
<defs>
<clipPath id="clip0_3165_2">
<rect width="27.792" height="27.792" rx="6" fill="white"/>
</clipPath>
</defs>
</svg>
